<svg xmlns="http://www.w3.org/2000/svg" width="24" height="24" viewBox="0 0 24 24"><g transform="translate(-660 -706)"><rect width="24" height="24" transform="translate(660 706)" fill="none"/><g transform="translate(660.13 705.657)"><path d="M19.641,14.168a6.514,6.514,0,0,0-6.453-5.68,6.266,6.266,0,0,0-5.8,3.856,4.877,4.877,0,0,0-3.491,4.508A4.652,4.652,0,0,0,8.541,21.5H18.764a3.718,3.718,0,0,0,.877-7.331Zm-.877,5.472H8.541a2.792,2.792,0,0,1-2.789-2.788,3.025,3.025,0,0,1,2.485-2.8l.54-.1.178-.519a4.4,4.4,0,0,1,4.233-3.09,4.652,4.652,0,0,1,4.646,4.647v.93h.93a1.858,1.858,0,1,1,0,3.717Z" fill="#fff"/><path d="M10.06,2.343a8.2,8.2,0,0,0-8.19,8.19,8.063,8.063,0,0,0,1.11,4.1,5.6,5.6,0,0,1,1.27-1.99,5.926,5.926,0,0,1-.38-2.109,6.19,6.19,0,0,1,11.35-3.42,7.272,7.272,0,0,1,2.8,1.519A8.21,8.21,0,0,0,10.06,2.343Z" fill="#fff"/></g></g></svg>