<svg xmlns="http://www.w3.org/2000/svg" width="64" height="64" viewBox="0 0 64 64"><g transform="translate(-101 -88)"><rect width="64" height="64" transform="translate(101 88)" fill="none"/><path d="M55.518,31.759A23.759,23.759,0,1,1,31.759,8,23.759,23.759,0,0,1,55.518,31.759Zm-13.57-3.385c.473-3.161-1.934-4.861-5.226-5.995L37.789,18.1l-2.607-.65-1.04,4.17c-.685-.171-1.389-.332-2.089-.491l1.047-4.2-2.606-.65L29.427,20.56c-.567-.129-1.124-.257-1.665-.391l0-.013-3.6-.9-.694,2.784s1.934.443,1.894.471a1.387,1.387,0,0,1,1.215,1.516l-1.216,4.879a2.162,2.162,0,0,1,.271.087l-.276-.068-1.7,6.834a.949.949,0,0,1-1.195.619c.026.038-1.895-.473-1.895-.473L19.274,38.89l3.393.846c.631.158,1.25.324,1.859.48l-1.079,4.331,2.6.65,1.068-4.285q1.036.281,2.078.539l-1.065,4.265,2.607.65,1.079-4.323c4.446.841,7.789.5,9.2-3.519,1.134-3.237-.056-5.1-2.4-6.322a4.157,4.157,0,0,0,3.329-3.827Zm-5.957,8.352c-.806,3.237-6.257,1.487-8.024,1.048L29.4,32.036C31.165,32.477,36.833,33.35,35.991,36.726Zm.806-8.4c-.735,2.945-5.272,1.449-6.744,1.082l1.3-5.2C32.823,24.571,37.562,25.256,36.8,28.327Z" transform="translate(101 88)" fill="#fff"/></g></svg>