<svg xmlns="http://www.w3.org/2000/svg" width="68" height="68" viewBox="0 0 68 68"><g transform="translate(-290 -542)"><circle cx="34" cy="34" r="34" transform="translate(290 542)" fill="#fff" opacity="0.1"/><path d="M-2257.679-12528v-14H-2266v-5h8.32v-15.032h11.9a17.49,17.49,0,0,1,6.167,1.1,14.636,14.636,0,0,1,5.161,3.266,15.809,15.809,0,0,1,3.528,5.351,19.166,19.166,0,0,1,1.318,7.367,19,19,0,0,1-1.318,7.346,15.212,15.212,0,0,1-3.578,5.3,14.906,14.906,0,0,1-5.208,3.216,17.833,17.833,0,0,1-6.167,1.082Zm4.7-4.178h6.958a12.63,12.63,0,0,0,4.464-.791,10.3,10.3,0,0,0,3.7-2.377,11.1,11.1,0,0,0,2.494-3.982,15.776,15.776,0,0,0,.914-5.618,15.964,15.964,0,0,0-.914-5.64,11.5,11.5,0,0,0-2.472-4.032,10.147,10.147,0,0,0-3.647-2.421,12.043,12.043,0,0,0-4.439-.817h-7.056V-12547H-2247v5h-5.974Z" transform="translate(2572 13121.032)" fill="#fff" stroke="rgba(0,0,0,0)" stroke-width="1"/></g></svg>