<svg xmlns="http://www.w3.org/2000/svg" width="24" height="24" viewBox="0 0 24 24"><g transform="translate(-1376 -713)"><rect width="24" height="24" transform="translate(1376 713)" fill="none"/><g transform="translate(1376 713)"><path d="M18.944,11.112A7.009,7.009,0,0,0,12,5,6.741,6.741,0,0,0,5.757,9.15,5.247,5.247,0,0,0,2,14a5.006,5.006,0,0,0,5,5H18a4,4,0,0,0,.944-7.888ZM18,17H7a3,3,0,0,1-3-3,3.254,3.254,0,0,1,2.673-3.015l.581-.1.192-.558A4.733,4.733,0,0,1,12,7a5.006,5.006,0,0,1,5,5v1h1a2,2,0,0,1,0,4Z" fill="#fff"/></g></g></svg>