<svg xmlns="http://www.w3.org/2000/svg" width="52" height="52" viewBox="0 0 52 52"><g transform="translate(-298 -570)"><rect width="52" height="52" transform="translate(298 570)" fill="none"/><path d="M46.108.8A1.312,1.312,0,0,0,43.721.7a14.46,14.46,0,0,1-12.64,7.378H24.335a16.194,16.194,0,0,0-16.19,16.19,16.673,16.673,0,0,0,.126,1.729c5.38-3.854,13.146-7.125,24.159-7.125a1.349,1.349,0,1,1,0,2.7c-21.2,0-30.188,12.994-32.178,17.877a2.7,2.7,0,0,0,5,2.049,22.185,22.185,0,0,1,6.063-7.64,16.154,16.154,0,0,0,14.748,6.51C39.3,39.4,48.62,27.527,48.62,12.989A30.663,30.663,0,0,0,46.108.8Z" transform="translate(299.635 574.468)" fill="#fff"/></g></svg>