<svg xmlns="http://www.w3.org/2000/svg" width="54" height="54" viewBox="0 0 54 54"><g transform="translate(-114 -103)"><rect width="54" height="54" transform="translate(114 103)" fill="none"/><path d="M-663,65h-30a3,3,0,0,1-3-3,3,3,0,0,1,3-3V47.829A3,3,0,0,1-695,45a3,3,0,0,1,2-2.829V31a3,3,0,0,1-3-3,3,3,0,0,1,3-3h30a3,3,0,0,1,3,3,3,3,0,0,1-3,3V42.171A3,3,0,0,1-661,45a3,3,0,0,1-2,2.829V59a3,3,0,0,1,3,3A3,3,0,0,1-663,65Zm-15-26h0c-.04.049-4,4.943-4,7.08A3.965,3.965,0,0,0-678,50a3.966,3.966,0,0,0,4-3.92c0-2.137-3.96-7.031-4-7.08Z" transform="translate(819 85)" fill="#fff"/></g></svg>