<svg xmlns="http://www.w3.org/2000/svg" width="24" height="24" viewBox="0 0 24 24"><g transform="translate(-800 -713)"><rect width="24" height="24" transform="translate(800 713)" fill="none"/><g transform="translate(800 712)"><path d="M18.944,10.112A7.009,7.009,0,0,0,12,4,6.741,6.741,0,0,0,5.757,8.15,5.246,5.246,0,0,0,2,13a5.006,5.006,0,0,0,5,5V16a3,3,0,0,1-3-3A3.255,3.255,0,0,1,6.673,9.985l.581-.1.192-.559A4.733,4.733,0,0,1,12,6a5.006,5.006,0,0,1,5,5v1h1a2,2,0,0,1,0,4H17v2h1a4,4,0,0,0,.944-7.888Z" fill="#fff"/><circle cx="1" cy="1" r="1" transform="translate(14 15)" fill="#fff"/><circle cx="1" cy="1" r="1" transform="translate(14 18)" fill="#fff"/><circle cx="1" cy="1" r="1" transform="translate(11 17)" fill="#fff"/><circle cx="1" cy="1" r="1" transform="translate(11 20)" fill="#fff"/><circle cx="1" cy="1" r="1" transform="translate(8 18)" fill="#fff"/><circle cx="1" cy="1" r="1" transform="translate(8 15)" fill="#fff"/></g></g></svg>