<svg xmlns="http://www.w3.org/2000/svg" width="36" height="36" viewBox="0 0 36 36"><g transform="translate(-1705 -275)"><path d="M32.42,29.1l-6.649-6.649a1.524,1.524,0,0,0-2.133-.031L20.722,19.53A9.38,9.38,0,1,0,19.5,20.754l2.917,2.885-.031.031a1.572,1.572,0,0,0,0,2.2l6.649,6.618a1.572,1.572,0,0,0,2.2,0l1.192-1.192a1.571,1.571,0,0,0,0-2.2ZM5.856,13.509a7.684,7.684,0,1,1,7.684,7.684A7.7,7.7,0,0,1,5.856,13.509Z" transform="translate(1704.9 274.9)" fill="#fff"/><rect width="36" height="36" transform="translate(1705 275)" fill="none"/></g></svg>