<svg xmlns="http://www.w3.org/2000/svg" width="58" height="58" viewBox="0 0 58 58"><g transform="translate(-295 -572)"><rect width="58" height="58" transform="translate(295 572)" fill="none"/><path d="M44.127,56.591c.82,0,1.093-.332,1.191-1l1.051-8.085a2.1,2.1,0,0,1,.891-1.628l6.611-4.892a2.48,2.48,0,0,0,.835-1.31,26.179,26.179,0,1,0-51.384,0,2.483,2.483,0,0,0,.835,1.31l6.611,4.892a2.1,2.1,0,0,1,.891,1.628L12.709,55.6c.1.664.371,1,1.191,1h7.03V52.373H18.938c-1.562,0-2.363-.156-2.6-1.953l-.527-3.671c-.156-1.016.313-1.875,2.031-.547,2.163,1.672,6.561,4.764,6.561,4.764.7.469,1.015,1.406-.391,1.406H20.93v4.218h4.647a5.329,5.329,0,0,0,3.4,1.074l.019-4.257a3.843,3.843,0,0,1-2.011-1.035L8.863,38.978c-1.523-1.25-1.8-1.914-1.78-4.348a22.21,22.21,0,0,1,.149-2.567c.3-1.052.968-1.911,2.491-.309L23.8,46.594c.2.235.566-.019.273-.351L9.233,29.118c-.644-.723-1-1.191-.39-3.113A10.2,10.2,0,0,1,10.5,23.084c.322-.294,1.621-1.836,2.617-.039L25.284,45.285c.176.317.566.117.41-.215L13.7,21.092c-.625-1.347-.269-1.813,0-2.148a22.306,22.306,0,0,1,3.632-2.89c1.08-.576,1.979-1.1,2.421.625l7.42,27.708c.1.409.508.332.43-.1L21.086,15.43c-.2-.781.154-1.334,1.21-1.682a12.65,12.65,0,0,1,4.57-.934c.937,0,1.484.547,1.484,1.757l.43,29.68c.039.391.449.351.468,0l.43-29.68c0-1.211.547-1.757,1.484-1.757a12.649,12.649,0,0,1,4.57.934c1.055.348,1.4.9,1.21,1.682L30.42,44.29c-.078.43.332.507.43.1l7.42-27.708c.442-1.728,1.341-1.2,2.421-.625a22.31,22.31,0,0,1,3.632,2.89c.269.335.625.8,0,2.148L32.333,45.071c-.156.332.233.532.41.215L44.908,23.045c1-1.8,2.295-.255,2.617.039a10.218,10.218,0,0,1,1.659,2.921c.606,1.922.255,2.39-.39,3.113L33.954,46.243c-.293.332.078.586.273.351l14.079-14.84c1.523-1.6,2.187-.742,2.491.313.04.345.073.692.1,1.044q.051.752.052,1.52c.017,2.434-.257,3.1-1.78,4.348L31.045,52.374a3.95,3.95,0,0,1-2.051,1.035l-.019,4.257a5.542,5.542,0,0,0,3.476-1.074h3.905V52.374H34.013c-1.406,0-1.094-.937-.391-1.406,0,0,4.4-3.093,6.561-4.764,1.718-1.328,2.187-.469,2.031.547l-.528,3.671c-.235,1.8-1.035,1.953-2.6,1.953H36.356v4.218h7.771Z" transform="translate(295.165 567.548)" fill="#fff" fill-rule="evenodd"/></g></svg>