<svg xmlns="http://www.w3.org/2000/svg" width="64" height="64" viewBox="0 0 64 64"><g transform="translate(-126 -93)"><rect width="64" height="64" transform="translate(126 93)" fill="none"/><circle cx="32" cy="32" r="32" transform="translate(126 93)" fill="#fff"/><g transform="translate(141.021 108.019)"><path d="M31.125,8.1l-.091-.579-.579-.091c-.3-.061-7.592-1.25-11.494,2.652a8.454,8.454,0,0,0-1.555,2.2,10.763,10.763,0,0,0-2.774-6.585C10.7,1.759,3.411,2.948,3.106,3.009L2.527,3.1,2.4,3.71c-.061.3-1.25,7.592,2.652,11.494,2.409,2.409,6.067,2.866,8.628,2.866a20.068,20.068,0,0,0,2.287-.122V30.722a.852.852,0,0,0,.854.854.827.827,0,0,0,.823-.854V22.338a18.949,18.949,0,0,0,2.165.122c2.561,0,6.22-.488,8.628-2.866C32.344,15.692,31.155,8.405,31.125,8.1ZM15.7,16.3c-1.738.183-6.707.427-9.421-2.287S3.807,6.332,3.99,4.594c1.738-.183,6.707-.427,9.421,2.287C16.124,9.564,15.881,14.564,15.7,16.3Zm11.555,2.1c-2.713,2.713-7.683,2.47-9.421,2.287-.183-1.738-.427-6.707,2.287-9.421S27.8,8.8,29.539,8.985C29.722,10.722,29.966,15.692,27.253,18.405Z" transform="translate(0 0)" fill="#1db954"/></g></g></svg>