<svg xmlns="http://www.w3.org/2000/svg" width="64" height="64" viewBox="0 0 64 64"><g transform="translate(-126 -93)"><rect width="64" height="64" transform="translate(126 93)" fill="none"/><g transform="translate(131 101)"><path d="M48.607,21.471a7.614,7.614,0,0,0-7.474-6.237A7.52,7.52,0,0,0,37.867,16a9.123,9.123,0,0,0-16.539,5.332c0,.048.019.1.019.152a7.616,7.616,0,0,0,1.5,15.082H47.227a7.608,7.608,0,0,0,1.381-15.092ZM11.816,24.746A9.118,9.118,0,0,1,23.88,11.112a12.1,12.1,0,0,1,6.589-1.971c.067,0,.124.019.19.019l.847-2.542a1.236,1.236,0,0,0-1.571-1.562l-7.17,2.39L19.386.686a1.24,1.24,0,0,0-2.219,0l-3.38,6.76-7.17-2.39A1.236,1.236,0,0,0,5.056,6.627l2.39,7.17-6.76,3.38a1.24,1.24,0,0,0,0,2.219l6.76,3.38-2.39,7.17a1.244,1.244,0,0,0,1.571,1.571l5.637-1.876c-.019-.229-.067-.448-.067-.686a10.523,10.523,0,0,1,.59-3.418,8.781,8.781,0,0,1-.971-.79Zm6.646-5.522A12.142,12.142,0,0,1,21.5,13.13a6.011,6.011,0,0,0-3.218-.943,6.1,6.1,0,0,0-6.094,6.094A6.037,6.037,0,0,0,14.2,22.766,10.677,10.677,0,0,1,18.462,19.224ZM49.94,39.809a1.52,1.52,0,0,0-2.076.571L44.38,46.474a1.518,1.518,0,0,0,.571,2.076,1.519,1.519,0,0,0,2.076-.571l3.485-6.094A1.526,1.526,0,0,0,49.94,39.809Zm-9.141,0a1.52,1.52,0,0,0-2.076.571l-3.485,6.094a1.518,1.518,0,0,0,.571,2.076,1.519,1.519,0,0,0,2.076-.571l3.485-6.094A1.526,1.526,0,0,0,40.8,39.809Zm-9.141,0a1.52,1.52,0,0,0-2.076.571L26.1,46.474a1.518,1.518,0,0,0,.571,2.076,1.519,1.519,0,0,0,2.076-.571l3.485-6.094A1.526,1.526,0,0,0,31.659,39.809Zm-9.141,0a1.52,1.52,0,0,0-2.076.571l-3.485,6.094a1.518,1.518,0,0,0,.571,2.076,1.519,1.519,0,0,0,2.076-.571l3.485-6.094A1.526,1.526,0,0,0,22.518,39.809Z" fill="#fff"/></g></g></svg>